<svg width="76" height="52" viewBox="0 0 76 52" fill="none" xmlns="http://www.w3.org/2000/svg">
<path d="M52.6155 16.077H76V6.57697C76 2.95049 73.0497 0 69.423 0H6.57697C2.95034 0 0 2.95049 0 6.57697V44.577C0 48.2034 2.95034 51.1539 6.57697 51.1539H69.4232C73.0497 51.1539 76 48.2034 76 44.577V35.077H52.6155C51.4046 35.077 50.4232 34.0954 50.4232 32.8847V18.2692C50.423 17.0586 51.4046 16.077 52.6155 16.077ZM36.5303 22.8365C36.5303 23.8498 36.2228 24.7925 35.6968 25.577C36.2231 26.3613 36.5303 27.304 36.5303 28.3174V31.0579C36.5303 33.7777 34.3176 35.9906 31.5976 35.9906H29.9534V38.7309C29.9534 39.9417 28.9717 40.9232 27.7611 40.9232C26.5504 40.9232 25.5688 39.9416 25.5688 38.7309V35.9906H21.1843C19.9735 35.9906 18.992 35.009 18.992 33.7983V17.3558C18.992 16.1451 19.9736 15.1635 21.1843 15.1635H25.5688V12.4232C25.5688 11.2124 26.5504 10.2309 27.7611 10.2309C28.9717 10.2309 29.9534 11.2125 29.9534 12.4232V15.1635H31.5976C34.3176 15.1635 36.5303 17.3764 36.5303 20.0962V22.8365Z" fill="#009688"/>
</svg>
