<svg width="521" height="520" viewBox="0 0 521 520" fill="none" xmlns="http://www.w3.org/2000/svg">
<path opacity="0.1" d="M233.443 201.366C213.284 193.839 191.957 187.49 170.1 187.94C137.968 188.603 106.938 205.163 91.4927 229.897C78.4365 250.857 76.5065 275.606 70.6858 298.988C63.5143 327.794 50.1354 355.075 35.8772 381.745C28.2189 396.069 20.1438 410.692 18.6989 426.491C16.7145 448.427 28.3624 470.473 46.8966 485.341C65.4308 500.21 90.1931 508.261 115.124 510.305C128.39 511.387 142.269 510.757 154.133 505.484C166.683 499.929 175.914 489.645 188.513 484.152C200.191 479.067 213.756 478.516 226.8 479.389C243.692 480.494 260.403 483.859 276.578 489.415C294.715 495.685 311.541 504.631 329.639 510.99C347.736 517.348 367.995 521.032 386.636 516.201C404.137 511.669 418.086 500.249 430.676 488.666C450.964 470.048 469.855 449.585 487.158 427.486C498.565 412.867 509.206 397.416 514.391 380.265C524.295 347.467 511.72 310.13 483.064 287.241C459.324 268.27 427.243 259.71 395.8 254.408C367.125 249.526 333.908 248.783 307.618 236.749C282.543 225.241 259.764 211.192 233.443 201.366Z" fill="#009688"/>
<path opacity="0.1" d="M490.252 315.61C497.397 315.671 503.197 314.828 503.207 313.726C503.216 312.625 497.431 311.682 490.286 311.621C483.14 311.561 477.34 312.404 477.331 313.505C477.321 314.607 483.106 315.549 490.252 315.61Z" fill="#009688"/>
<path opacity="0.1" d="M440.64 320.837C447.786 320.898 453.586 320.054 453.595 318.953C453.605 317.851 447.82 316.909 440.674 316.848C433.529 316.787 427.729 317.631 427.719 318.732C427.71 319.834 433.495 320.776 440.64 320.837Z" fill="#009688"/>
<path opacity="0.1" d="M382.325 312.694C389.47 312.755 395.271 311.912 395.28 310.81C395.289 309.709 389.504 308.766 382.359 308.705C375.213 308.645 369.413 309.488 369.404 310.589C369.394 311.691 375.179 312.633 382.325 312.694Z" fill="#009688"/>
<path opacity="0.1" d="M460.342 336.515C465.422 336.558 469.546 335.956 469.553 335.171C469.559 334.386 465.447 333.714 460.366 333.671C455.286 333.628 451.163 334.229 451.156 335.014C451.149 335.8 455.262 336.471 460.342 336.515Z" fill="#009688"/>
<path opacity="0.1" d="M408.917 334.654C413.997 334.697 418.121 334.096 418.128 333.311C418.134 332.525 414.022 331.854 408.941 331.81C403.861 331.767 399.738 332.369 399.731 333.154C399.724 333.939 403.837 334.611 408.917 334.654Z" fill="#009688"/>
<path d="M440.381 318.387C440.381 318.387 459.101 251.688 438.341 224.733C422.836 204.567 404.968 206.831 396.969 209.222C394.899 209.822 392.968 210.921 391.312 212.442C389.655 213.963 388.312 215.87 387.376 218.031C384.519 224.771 384.94 235.754 404.526 248.738C437.324 270.479 439.127 299.935 439.127 299.935L440.381 318.387Z" fill="#009688"/>
<path d="M399.727 218.727C399.727 218.727 453.066 237.982 440.382 318.386" stroke="#565987" stroke-miterlimit="10"/>
<path d="M430.909 225.732C430.909 225.732 423.494 231.25 425.751 239.65" stroke="#565987" stroke-miterlimit="10"/>
<path d="M404.997 230.475C404.997 230.475 409.519 225.367 414.998 228.252" stroke="#565987" stroke-miterlimit="10"/>
<path d="M425.921 256.546C425.921 256.546 433.864 252.108 435.86 257.769" stroke="#565987" stroke-miterlimit="10"/>
<path d="M445.408 266.112C445.408 266.112 439.472 265.533 439.339 268.721" stroke="#565987" stroke-miterlimit="10"/>
<path d="M441.11 318.927C441.11 318.927 420.251 270.156 414.425 271.17C411.621 271.649 410.341 274.709 409.738 277.78C408.988 281.757 409.358 285.894 410.796 289.618C413.747 297.42 421.722 312.256 441.11 318.927Z" fill="#009688"/>
<path d="M414.504 280.396C414.504 280.396 436.503 316.938 440.801 318.573" stroke="#565987" stroke-miterlimit="10"/>
<path d="M412.406 286.053L417.612 286.097" stroke="#565987" stroke-miterlimit="10"/>
<path d="M418.528 299.406L426.687 299.866" stroke="#565987" stroke-miterlimit="10"/>
<path d="M423.585 288.809L422.66 293.577" stroke="#565987" stroke-miterlimit="10"/>
<path d="M432.138 303.423L431.945 307.763" stroke="#565987" stroke-miterlimit="10"/>
<path d="M440.484 318.922C440.484 318.922 462.172 270.515 467.98 271.627C470.775 272.155 472.003 275.236 472.553 278.317C473.236 282.305 472.796 286.436 471.294 290.135C468.21 297.886 459.983 312.583 440.484 318.922Z" fill="#009688"/>
<path d="M467.744 280.85C467.744 280.85 445.124 317.012 440.8 318.573" stroke="#565987" stroke-miterlimit="10"/>
<path d="M469.745 286.542L464.538 286.497" stroke="#565987" stroke-miterlimit="10"/>
<path d="M463.395 299.789L455.229 300.11" stroke="#565987" stroke-miterlimit="10"/>
<path d="M458.52 289.107L459.364 293.89" stroke="#565987" stroke-miterlimit="10"/>
<path d="M449.711 303.573L449.836 307.915" stroke="#565987" stroke-miterlimit="10"/>
<path d="M403.891 329.961C403.318 329.425 402.903 328.706 402.699 327.9C402.609 327.494 402.646 327.065 402.803 326.685C402.96 326.305 403.228 325.997 403.562 325.812C404.343 325.485 405.167 326.096 405.794 326.718C406.421 327.34 407.132 328.032 407.956 327.913C407.537 327.478 407.226 326.928 407.053 326.317C406.879 325.705 406.85 325.054 406.967 324.425C407.004 324.165 407.103 323.92 407.253 323.717C407.689 323.205 408.47 323.438 408.982 323.845C410.611 325.161 411.049 327.669 411.041 329.922C411.128 329.086 411.135 328.242 411.062 327.405C411.034 326.988 411.097 326.569 411.246 326.186C411.394 325.802 411.624 325.465 411.915 325.204C412.306 324.968 412.746 324.854 413.189 324.875C413.556 324.819 413.929 324.851 414.284 324.968C414.639 325.085 414.968 325.284 415.249 325.553C415.864 326.313 415.691 327.577 415.141 328.402C414.524 329.157 413.797 329.79 412.992 330.272C412.375 330.674 411.848 331.229 411.45 331.894C411.405 331.987 411.367 332.084 411.335 332.183L406.711 332.143C405.688 331.562 404.739 330.828 403.891 329.961Z" fill="#009688"/>
<path d="M485.049 311.079C484.474 310.545 484.058 309.826 483.857 309.018C483.768 308.613 483.805 308.185 483.962 307.806C484.119 307.428 484.387 307.121 484.721 306.937C485.502 306.61 486.325 307.221 486.953 307.836C487.58 308.452 488.296 309.157 489.12 309.032C488.699 308.598 488.386 308.048 488.212 307.436C488.038 306.825 488.008 306.173 488.125 305.544C488.162 305.283 488.263 305.04 488.417 304.841C488.852 304.329 489.629 304.556 490.14 304.969C491.77 306.279 492.208 308.762 492.199 311.046C492.289 310.21 492.296 309.366 492.221 308.529C492.192 308.113 492.255 307.694 492.404 307.31C492.553 306.926 492.783 306.589 493.074 306.328C493.466 306.098 493.905 305.987 494.347 306.006C494.712 305.944 495.084 305.97 495.44 306.082C495.795 306.193 496.125 306.388 496.408 306.652C497.029 307.406 496.855 308.67 496.3 309.495C495.686 310.266 494.959 310.911 494.15 311.402C493.533 311.805 493.006 312.36 492.608 313.025C492.561 313.117 492.523 313.213 492.493 313.314L487.869 313.274C486.846 312.687 485.898 311.949 485.049 311.079Z" fill="#009688"/>
<path d="M457.888 330.422C457.315 329.885 456.9 329.167 456.696 328.361C456.606 327.955 456.643 327.526 456.8 327.146C456.957 326.766 457.225 326.458 457.559 326.273C458.34 325.946 459.164 326.557 459.791 327.179C460.419 327.801 461.129 328.493 461.953 328.374C461.534 327.939 461.222 327.389 461.048 326.778C460.873 326.167 460.843 325.515 460.959 324.886C461 324.626 461.1 324.382 461.25 324.178C461.686 323.665 462.467 323.899 462.979 324.306C464.608 325.622 465.046 328.13 465.038 330.382C465.135 329.548 465.151 328.704 465.087 327.866C465.059 327.449 465.122 327.031 465.271 326.647C465.419 326.263 465.649 325.926 465.94 325.665C466.331 325.429 466.771 325.315 467.214 325.336C467.581 325.281 467.954 325.312 468.309 325.429C468.664 325.546 468.993 325.745 469.274 326.014C469.889 326.774 469.716 328.038 469.166 328.864C468.549 329.619 467.822 330.251 467.017 330.733C466.4 331.135 465.873 331.69 465.475 332.356C465.43 332.448 465.392 332.545 465.36 332.644L460.736 332.605C459.703 332.026 458.745 331.291 457.888 330.422Z" fill="#009688"/>
<path d="M381.676 290.207C381.676 290.207 379.919 292.74 382.422 296.606C384.926 300.472 386.981 303.742 386.12 306.132C386.12 306.132 382.358 298.959 379.246 298.831C376.134 298.704 378.213 294.475 381.676 290.207Z" fill="#009688"/>
<path opacity="0.1" d="M381.676 290.207C381.521 290.451 381.398 290.719 381.311 291.003C378.243 294.985 376.593 298.714 379.509 298.834C382.229 298.945 385.446 304.434 386.213 305.812C386.212 305.919 386.155 306.025 386.12 306.126C386.12 306.126 382.358 298.952 379.246 298.825C376.134 298.698 378.213 294.475 381.676 290.207Z" fill="black"/>
<path d="M378.425 293.426C378.417 294.326 378.501 295.05 378.613 295.051C378.724 295.052 378.815 294.33 378.822 293.43C378.83 292.53 378.714 292.957 378.608 292.956C378.502 292.955 378.432 292.533 378.425 293.426Z" fill="#FFD037"/>
<path d="M377.307 294.486C378.003 294.926 378.616 295.19 378.668 295.083C378.719 294.977 378.202 294.532 377.506 294.098C376.81 293.664 377.081 293.975 377.024 294.094C376.967 294.213 376.61 294.053 377.307 294.486Z" fill="#FFD037"/>
<path d="M390.83 290.286C390.83 290.286 392.544 292.849 389.975 296.672C387.406 300.494 385.296 303.729 386.12 306.133C386.12 306.133 390 299.025 393.113 298.951C396.227 298.877 394.22 294.613 390.83 290.286Z" fill="#009688"/>
<path opacity="0.1" d="M390.83 290.285C390.981 290.532 391.099 290.802 391.181 291.088C394.181 295.121 395.767 298.878 392.85 298.948C390.128 299.013 386.818 304.446 386.028 305.811C386.053 305.918 386.083 306.023 386.12 306.126C386.12 306.126 389.999 299.018 393.113 298.944C396.226 298.87 394.219 294.612 390.83 290.285Z" fill="black"/>
<path d="M394.027 293.559C394.02 294.459 393.924 295.182 393.812 295.181C393.7 295.18 393.622 294.456 393.63 293.556C393.638 292.656 393.746 293.085 393.852 293.086C393.959 293.087 394.035 292.666 394.027 293.559Z" fill="#FFD037"/>
<path d="M395.127 294.639C394.424 295.067 393.806 295.32 393.756 295.212C393.707 295.105 394.231 294.669 394.935 294.247C395.638 293.825 395.361 294.131 395.416 294.251C395.471 294.371 395.831 294.217 395.127 294.639Z" fill="#FFD037"/>
<path d="M393.369 305.861C393.369 305.861 388.528 305.656 387.076 304.474C385.625 303.291 379.641 301.843 379.245 303.715C378.848 305.586 371.887 312.977 377.351 313.073C382.814 313.17 390.078 312.226 391.543 311.238C393.007 310.25 393.369 305.861 393.369 305.861Z" fill="#A8A8A8"/>
<path opacity="0.2" d="M377.276 312.419C382.746 312.516 389.999 311.571 391.468 310.583C392.595 309.838 393.049 307.111 393.188 305.854L393.345 305.855C393.345 305.855 393.005 310.256 391.536 311.232C390.066 312.207 382.819 313.164 377.344 313.067C375.765 313.054 375.227 312.42 375.263 311.47C375.499 312.045 376.101 312.402 377.276 312.419Z" fill="black"/>
<path opacity="0.1" d="M75.1253 52.355C81.8132 52.4121 87.2868 46.3656 87.3509 38.8498C87.415 31.334 82.0454 25.195 75.3575 25.138C68.6696 25.0809 63.1961 31.1274 63.132 38.6432C63.0678 46.159 68.4375 52.298 75.1253 52.355Z" fill="#009688"/>
<path opacity="0.1" d="M284.752 32.6624C291.44 32.7195 296.913 26.673 296.977 19.1572C297.041 11.6414 291.672 5.50239 284.984 5.44534C278.296 5.38829 272.823 11.4348 272.758 18.9506C272.694 26.4664 278.064 32.6054 284.752 32.6624Z" fill="#009688"/>
<path opacity="0.1" d="M476.404 88.0623C483.092 88.1194 488.566 82.0729 488.63 74.5571C488.694 67.0413 483.324 60.9023 476.637 60.8452C469.949 60.7882 464.475 66.8347 464.411 74.3505C464.347 81.8663 469.717 88.0053 476.404 88.0623Z" fill="#009688"/>
<path opacity="0.1" d="M22.0615 185.889C33.2698 185.985 42.4431 175.852 42.5505 163.256C42.658 150.66 33.6589 140.372 22.4507 140.276C11.2424 140.18 2.06914 150.314 1.96169 162.91C1.85424 175.505 10.8533 185.794 22.0615 185.889Z" fill="#009688"/>
<path opacity="0.1" d="M40.5557 298.674C51.764 298.769 60.9372 288.636 61.0446 276.04C61.1521 263.444 52.1531 253.156 40.9448 253.06C29.7365 252.965 20.5633 263.098 20.4558 275.694C20.3484 288.29 29.3474 298.578 40.5557 298.674Z" fill="#009688"/>
<path opacity="0.1" d="M421.493 202.579C432.701 202.675 441.874 192.541 441.982 179.946C442.089 167.35 433.09 157.061 421.882 156.966C410.674 156.87 401.501 167.004 401.393 179.599C401.286 192.195 410.285 202.484 421.493 202.579Z" fill="#009688"/>
<path d="M253.504 221.048C252.787 221.117 252.059 221.073 251.347 221.193C250.151 221.45 249.008 221.954 247.975 222.68C242.853 225.896 238.005 230.335 235.842 236.457C235.666 236.833 235.607 237.265 235.675 237.683C235.797 238.027 236 238.329 236.261 238.556L238.226 240.599C238.474 240.893 238.77 241.131 239.099 241.298C239.632 241.46 240.196 241.445 240.723 241.255C246.182 239.899 251.985 238.331 255.848 233.784C257.68 231.629 259.379 228.654 262.051 228.595C263.17 228.605 264.213 229.098 265.315 229.252C266.416 229.407 267.748 228.889 268.021 227.684C268.112 227.084 268.055 226.468 267.857 225.902L266.264 219.728C265.83 218.038 261.313 217.912 259.805 218.201C257.505 218.628 255.941 220.817 253.504 221.048Z" fill="#65617D"/>
<path d="M272.602 255.911C272.506 258.018 272.639 260.152 272.313 262.238C272.028 263.883 271.545 265.477 270.878 266.977C269.851 269.388 268.552 271.642 267.014 273.682C265.581 275.558 263.87 277.317 261.764 278.042C259.658 278.766 257.082 278.21 255.789 276.21C254.734 274.584 254.702 272.426 254.797 270.407C255.03 265.445 255.767 260.417 257.787 255.992C258.654 254.112 259.75 252.322 260.634 250.423C262.481 246.481 263.557 241.797 266.71 239.093C268.665 240.129 270.759 240.795 272.908 241.065C273.741 241.173 276.126 241.256 276.395 242.46C276.579 243.273 274.992 245.531 274.683 246.327C273.462 249.349 272.756 252.6 272.602 255.911Z" fill="#65617D"/>
<path d="M251.183 164.986C251.838 166.917 252.673 168.811 252.813 170.864C252.914 172.123 252.791 173.38 252.78 174.639C252.86 176.363 253.101 178.074 253.498 179.741L256.494 194.112C256.941 196.262 257.387 198.468 257.127 200.655C256.952 202.113 256.47 203.525 256.463 204.991C256.513 206.103 256.661 207.207 256.905 208.285C257.467 211.617 257.276 215.055 256.35 218.285C256.255 218.528 256.22 218.795 256.248 219.058C256.323 219.468 256.673 219.722 256.991 219.92C260.33 222.013 263.978 223.414 267.761 224.058C271.258 214.946 273.729 205.382 275.115 195.586C275.96 189.654 276.398 183.643 277.467 177.756C277.493 177.416 277.625 177.096 277.839 176.853C278.223 176.498 278.797 176.729 279.243 176.972C284.938 180.113 290.412 183.735 295.617 187.808C297.482 185.143 298.804 182.05 299.489 178.75C300.174 175.449 300.206 172.021 299.581 168.708C298.948 165.851 298.032 163.083 296.852 160.455C295.599 157.26 294.028 154.235 292.17 151.436C288.066 145.55 282.007 141.761 275.758 139.172C271.959 137.592 268.044 136.413 264.135 135.209C261.946 134.53 258.287 132.347 256.139 134.002C253.885 135.726 252.359 140.035 251.417 142.771C250.255 146.163 249.607 149.75 249.502 153.382C249.376 157.338 249.947 161.282 251.183 164.986Z" fill="#3F3D56"/>
<path d="M296.042 182.665C294.859 184.089 295.825 186.388 295.585 188.324C295.431 189.197 295.145 190.036 294.74 190.802L289.282 202.578C288.371 204.344 287.684 206.244 287.24 208.223C286.471 212.483 287.936 217.29 285.978 221.042C285.346 222.251 284.374 223.287 284.105 224.656C283.906 225.655 284.087 226.701 283.984 227.713C283.845 228.901 283.27 229.966 282.947 231.108C282.693 232.206 282.509 233.323 282.398 234.451C281.677 239.256 279.398 243.595 276.001 246.628C274.053 248.451 271.564 249.379 269.036 249.224C266.541 248.963 264.077 247.036 263.591 244.276C263.426 243.337 263.468 242.293 262.954 241.527C262.224 240.432 260.668 240.375 259.967 239.255L262.765 234.183C263.635 232.611 264.522 230.97 264.678 229.128C264.865 226.87 263.916 224.61 264.282 222.379C264.595 220.463 265.835 218.875 266.22 216.979C266.7 214.623 265.802 212.231 265.324 209.874C264.153 204.069 265.57 198.04 266.98 192.27C268.853 184.635 270.773 176.881 274.492 170.149C281.76 174.634 288.442 178.938 296.042 182.665Z" fill="#3F3D56"/>
<path d="M297.131 62.8252C297.556 64.1627 297.308 65.6392 297.212 67.054C296.99 70.1981 297.556 73.3489 297.395 76.5376C297.233 79.7262 296.334 82.7639 295.703 85.8604C293.908 94.6979 294.244 103.925 292.612 112.801C290.598 123.795 285.6 134.008 284.536 145.174C284.198 148.72 284.205 152.52 282.449 155.5C272.213 150.327 262.55 143.83 253.657 136.139C255.768 119.729 257.857 103.237 257.735 86.6628C257.625 84.664 257.766 82.657 258.156 80.7016C258.637 79.0604 259.321 77.5031 260.188 76.0755C262.389 72.1366 264.806 68.3569 267.218 64.5834C268.761 62.1679 270.429 59.6339 272.869 58.5158C275.308 57.3978 278.181 57.9319 280.825 58.4956C284.006 59.1771 287.185 59.8586 290.359 60.54C292.343 60.9659 296.302 60.2195 297.131 62.8252Z" fill="#009688"/>
<path d="M219.935 125.117C218.642 123.638 217.229 122.297 215.714 121.111C217.725 118.41 217.366 114.475 217.883 111C218.301 108.743 218.926 106.541 219.748 104.428C219.954 103.832 220.245 103.174 220.801 103.021C221.142 102.977 221.486 103.041 221.796 103.206C223.47 103.887 226.975 103.879 228.269 105.111C229.829 106.609 228.364 109.705 227.755 111.556C227.324 112.798 220.761 126.068 219.935 125.117Z" fill="#BE6F72"/>
<path d="M223.809 242.652C224.639 244.193 225.175 245.912 225.384 247.699C225.503 249.487 224.904 251.439 223.541 252.371C222.178 253.303 220.238 252.972 218.631 252.392C215.221 251.113 212.092 249.039 209.448 246.306C206.804 243.573 204.703 240.242 203.285 236.531C202.787 235.206 202.356 233.799 201.464 232.772C200.8 232.105 200.061 231.538 199.267 231.086C197.078 229.67 194.972 227.815 193.976 225.202C192.979 222.588 193.468 219.113 195.591 217.583C196.253 217.162 196.982 216.893 197.737 216.791C198.491 216.689 199.256 216.758 199.986 216.992C201.441 217.47 202.833 218.165 204.123 219.059C206.284 220.405 208.927 221.573 210.805 223.357C212.471 224.925 213.959 227.04 215.377 228.883C217 231.003 218.519 233.222 219.928 235.528C220.381 236.205 224.2 242.045 223.809 242.652Z" fill="#65617D"/>
<path d="M182.885 229.097C182.667 232.261 182.143 235.389 181.321 238.427C180.853 240.134 180.239 241.91 178.97 242.987C177.898 243.755 176.686 244.241 175.425 244.411C174.984 244.541 174.525 244.569 174.075 244.493C173.304 244.304 172.762 243.551 172.292 242.836C170.446 240.039 168.651 237.086 167.891 233.707C166.813 228.809 167.977 223.577 169.959 219.026C170.673 217.191 171.705 215.533 172.996 214.151C174.588 212.705 176.494 211.763 178.517 211.423C180.587 210.975 183.131 210.003 183.258 212.829C183.433 218.254 183.308 223.687 182.885 229.097Z" fill="#65617D"/>
<path d="M214.869 111.106C218.713 113.385 222.977 116.278 223.742 121.085C224.216 124.022 223.233 127.014 223.364 129.998C223.482 132.623 224.44 135.166 224.294 137.783C224.153 139.018 223.956 140.245 223.703 141.458C223.353 143.777 223.529 146.144 223.425 148.49C223.195 153.774 221.578 158.844 220.772 164.053C220.202 167.773 220.043 171.556 220.301 175.318C220.465 177.748 220.82 180.167 220.799 182.608C220.784 184.366 220.64 186.12 220.368 187.852C219.571 193.294 218.014 198.562 215.756 203.461C213.012 209.396 213.327 217.087 213.556 223.765C213.672 224.686 213.56 225.626 213.23 226.48C212.512 227.915 210.753 228.108 209.298 227.957C203.905 227.357 198.923 224.465 195.37 219.873C194.851 219.295 194.502 218.552 194.369 217.744C194.258 216.396 195.23 215.297 195.934 214.189C198.328 210.435 197.773 205.315 198.092 200.68C198.326 197.308 199.071 194.006 200.298 190.915C201.007 189.128 201.89 187.367 202.063 185.418C202.225 183.601 201.747 181.798 201.275 180.057L199.647 174.053C197.123 164.726 194.582 155.342 190.715 146.62C188.113 148.488 186.237 151.396 185.467 154.754C183.949 160.668 185.981 167.305 183.934 172.988C183.596 173.776 183.314 174.591 183.09 175.428C182.966 176.151 182.915 176.887 182.937 177.623C182.937 183.756 183.217 189.884 183.777 195.984C183.799 196.907 184.022 197.81 184.426 198.613C184.752 199.151 185.23 199.551 185.579 200.064C186.546 201.5 186.344 203.499 186.094 205.278L184.903 213.686C184.879 214.113 184.749 214.524 184.528 214.872C184.262 215.157 183.931 215.355 183.572 215.443C180.004 216.654 176.25 217.008 172.556 216.482C171.465 216.328 170.481 215.495 169.575 214.795C169.49 213.536 170.891 212.711 170.952 211.46C170.905 210.717 170.604 210.025 170.112 209.527C168.052 206.867 165.59 204.04 165.643 200.51C165.651 199.585 165.855 198.662 165.834 197.737C165.782 195.365 164.344 193.32 163.854 191.032C163.251 188.202 164.11 185.277 164.454 182.392C164.924 178.507 164.442 174.565 163.994 170.679L162.24 156.419C162.041 154.206 161.67 152.017 161.131 149.878C160.443 147.77 159.632 145.716 158.703 143.729C156.947 139.624 155.51 135.359 154.08 131.106C153.623 129.95 153.341 128.716 153.243 127.456C153.178 125.297 154.186 123.267 155.432 121.616C157.765 118.549 160.932 116.431 164.441 115.59C165.028 115.412 165.644 115.389 166.239 115.524C166.739 115.715 167.208 115.997 167.626 116.36C171.927 119.578 176.834 121.631 181.963 122.359C187.093 123.088 192.305 122.471 197.191 120.557C197.747 121.04 198.785 120.841 199.431 120.507C201.236 119.597 202.716 118.068 204.306 116.773C207.267 114.294 211.251 111.95 214.869 111.106Z" fill="#3F3D56"/>
<path d="M97.4516 271.688C97.7406 272.655 98.1803 273.555 98.7502 274.348C100.752 277.335 103.559 279.731 104.833 283.209C105.101 283.954 105.296 284.736 105.542 285.493C106.289 287.778 107.52 289.823 109.13 291.45C110.359 292.616 111.696 293.63 113.119 294.473C115.58 296.01 118.245 297.405 121.056 297.347C121.621 297.338 122.184 297.267 122.737 297.135C123.614 296.938 124.46 296.598 125.249 296.124C127.067 295.02 128.636 292.844 128.297 290.557C128.229 290.121 128.11 289.697 127.944 289.295C127.652 288.656 127.315 288.045 126.935 287.468C126.001 285.988 125.04 284.47 123.665 283.514C122.118 282.432 120.161 282.151 118.773 280.817C118.225 280.251 117.754 279.599 117.373 278.88C116.123 276.678 115.198 274.263 114.634 271.728C114.225 269.837 113.957 267.765 112.743 266.37C111.528 264.975 109.846 264.646 108.214 264.318C107.663 264.185 107.1 264.119 106.536 264.121C105.735 264.146 104.904 264.397 104.158 263.969C103.411 263.541 103.164 262.941 102.257 263.015C101.534 263.118 100.85 263.446 100.283 263.961C98.1409 265.711 96.7032 268.844 97.4516 271.688Z" fill="#3F3D56"/>
<path d="M117.319 274.721C117.664 276.856 118.205 279.132 119.66 280.535C120.587 281.449 121.887 282.027 122.34 283.308C122.794 284.589 122.182 286.188 121.399 287.352C120.4 288.823 119.167 290.074 117.762 291.039C116.568 291.853 115.146 292.47 113.789 292.094C112.672 291.789 111.795 290.875 110.968 289.994C109.07 287.983 107.129 285.896 106.077 283.213C104.981 280.385 104.953 277.119 103.756 274.334C103.059 272.711 101.974 271.286 101.557 269.546C101.369 268.917 101.375 268.234 101.574 267.608C101.786 267.161 102.105 266.789 102.495 266.533C102.885 266.278 103.33 266.149 103.781 266.161C104.682 266.203 105.569 266.423 106.401 266.813C108.92 267.847 111.5 268.682 114.123 269.314C115.168 269.543 115.801 269.542 116.351 270.685C116.857 271.966 117.184 273.327 117.319 274.721Z" fill="#FBBEBE"/>
<path d="M123.659 292.807C123.237 293.517 122.936 294.308 122.771 295.14C122.633 295.787 122.607 296.458 122.692 297.115C123.569 296.919 124.415 296.579 125.204 296.105C127.022 295 128.591 292.824 128.252 290.537C128.184 290.101 128.065 289.677 127.899 289.276C127.632 289.206 127.354 289.217 127.092 289.306C126.83 289.396 126.593 289.561 126.405 289.785C125.356 290.626 124.429 291.646 123.659 292.807Z" fill="#FBBEBE"/>
<path d="M104.002 244.833C103.753 245.42 103.675 246.08 103.779 246.719C104.026 247.979 105.167 248.712 106.198 249.294L115.999 254.789C116.68 255.15 117.341 255.552 117.982 255.995C119.652 257.167 120.959 258.814 122.38 260.323C123.8 261.833 125.384 263.25 127.277 263.794C129.168 264.277 131.15 264.002 132.883 263.018C133.816 262.506 134.684 261.855 135.463 261.083C136.138 260.429 136.762 259.713 137.329 258.941C137.816 258.374 138.166 257.677 138.349 256.917C138.543 255.767 138.043 254.631 137.458 253.675C137.121 253.125 136.751 252.6 136.352 252.106C132.657 247.437 126.559 244.981 121.304 243.993C119.213 243.597 117.233 242.7 115.224 241.965C113.215 241.231 111.086 240.672 108.99 240.987C106.893 241.303 104.821 242.638 104.002 244.833Z" fill="#3F3D56"/>
<path opacity="0.1" d="M104.002 244.833C103.753 245.42 103.675 246.08 103.779 246.719C104.026 247.979 105.167 248.712 106.198 249.294L115.999 254.789C116.68 255.15 117.341 255.552 117.982 255.995C119.652 257.167 120.959 258.814 122.38 260.323C123.8 261.833 125.384 263.25 127.277 263.794C129.168 264.277 131.15 264.002 132.883 263.018C133.816 262.506 134.684 261.855 135.463 261.083C136.138 260.429 136.762 259.713 137.329 258.941C137.816 258.374 138.166 257.677 138.349 256.917C138.543 255.767 138.043 254.631 137.458 253.675C137.121 253.125 136.751 252.6 136.352 252.106C132.657 247.437 126.559 244.981 121.304 243.993C119.213 243.597 117.233 242.7 115.224 241.965C113.215 241.231 111.086 240.672 108.99 240.987C106.893 241.303 104.821 242.638 104.002 244.833Z" fill="black"/>
<path d="M128.617 248.497C129.366 249.459 129.98 250.545 130.437 251.715C130.851 252.483 130.993 253.398 130.835 254.28C130.61 254.872 130.253 255.389 129.798 255.781L128.81 256.792C128.511 257.135 128.164 257.421 127.783 257.639C127.245 257.86 126.672 257.952 126.101 257.908C124.786 257.896 123.369 257.884 122.308 256.988C120.857 255.793 120.614 253.343 121.297 251.468C121.979 249.592 123.385 248.182 124.801 246.923C125.952 245.895 127.825 247.54 128.617 248.497Z" fill="#FBBEBE"/>
<path d="M134.541 255.054C134.351 256.096 134.429 257.177 134.766 258.17C135.004 259.116 135.237 260.062 135.47 261.026C135.47 261.026 135.47 261.026 135.469 261.064C136.144 260.411 136.768 259.694 137.335 258.922C137.822 258.355 138.172 257.659 138.355 256.898C138.549 255.749 138.049 254.612 137.464 253.657C137.127 253.106 136.757 252.582 136.358 252.087C136.091 252.468 135.859 252.844 135.666 253.088C135.171 253.646 134.788 254.316 134.541 255.054Z" fill="#FBBEBE"/>
<path d="M109.216 207.944C108.01 213.408 108.454 219.137 109.022 224.729C109.456 228.986 109.945 233.395 108.79 237.481C108.363 239.006 107.695 240.555 107.933 242.136C108.384 245.116 111.565 246.288 114.203 246.871C114.963 247.095 115.755 247.155 116.536 247.048C117.321 246.815 118.05 246.392 118.674 245.808C122.456 242.771 125.345 238.534 126.969 233.641C127.999 230.365 128.348 226.876 128.686 223.425C129.25 217.616 129.821 211.737 129.115 205.955C128.905 204.255 128.583 202.572 128.458 200.86C128.307 197.882 128.479 194.894 128.971 191.961C129.997 184.694 131.518 177.526 133.521 170.519C128.183 171.269 122.773 170.123 118.051 167.241C118.965 167.802 117.837 176.62 117.714 177.859C117.343 181.551 116.718 185.206 115.846 188.791C114.227 195.491 110.689 201.287 109.216 207.944Z" fill="#3F3D56"/>
<path opacity="0.1" d="M109.216 207.944C108.01 213.408 108.454 219.137 109.022 224.729C109.456 228.986 109.945 233.395 108.79 237.481C108.363 239.006 107.695 240.555 107.933 242.136C108.384 245.116 111.565 246.288 114.203 246.871C114.963 247.095 115.755 247.155 116.536 247.048C117.321 246.815 118.05 246.392 118.674 245.808C122.456 242.771 125.345 238.534 126.969 233.641C127.999 230.365 128.348 226.876 128.686 223.425C129.25 217.616 129.821 211.737 129.115 205.955C128.905 204.255 128.583 202.572 128.458 200.86C128.307 197.882 128.479 194.894 128.971 191.961C129.997 184.694 131.518 177.526 133.521 170.519C128.183 171.269 122.773 170.123 118.051 167.241C118.965 167.802 117.837 176.62 117.714 177.859C117.343 181.551 116.718 185.206 115.846 188.791C114.227 195.491 110.689 201.287 109.216 207.944Z" fill="black"/>
<path d="M138.556 176.118C140.733 183.429 140.173 191.39 139.139 199.02C138.105 206.649 136.613 214.275 136.967 221.973C137.103 224.995 137.514 228.1 136.705 230.981C136.258 232.386 135.669 233.73 134.952 234.987L116.791 269.551C116.328 270.448 115.674 271.202 114.887 271.744C114.101 272.287 113.207 272.601 112.286 272.658C110.375 272.793 108.506 272.072 106.732 271.271C105.553 270.82 104.46 270.126 103.508 269.224C103.036 268.775 102.669 268.204 102.436 267.56C102.204 266.915 102.114 266.218 102.173 265.525C103.025 259.505 104.282 253.343 105.223 247.305C105.864 243.207 107.218 239.291 109.207 235.78C110.612 233.275 112.333 231.031 113.548 228.424C117.038 220.954 115.929 211.796 113.354 203.884C110.779 195.972 106.905 188.615 104.875 180.531C104.272 178.281 103.936 175.951 103.876 173.602C103.871 171.175 104.291 168.771 105.114 166.526C105.936 164.281 107.144 162.239 108.668 160.517C109.113 159.96 109.672 159.533 110.297 159.273C111.026 159.089 111.783 159.111 112.502 159.336C122.432 161.591 135.362 165.319 138.556 176.118Z" fill="#3F3D56"/>
<path d="M300.066 68.6256C300.367 71.384 299.459 74.1636 298.179 76.5374C293.338 85.4307 282.32 89.288 273.863 85.0569C270.379 83.3095 267.441 80.453 264.565 77.6349C263.599 76.6828 262.594 75.6864 262.113 74.3484C261.265 71.9817 262.336 69.1783 264.058 67.5068C265.78 65.8352 267.998 65.0236 270.205 64.2937C277.488 61.8138 298.461 53.9768 300.066 68.6256Z" fill="#FBBEBE"/>
<path d="M295.891 59.845C302.451 65.8783 312.027 71.6542 319.48 76.1473C322.014 77.679 324.827 79.4019 325.719 82.4925C326.197 84.1451 326.02 85.9368 325.842 87.6719C325.5 91.01 325.147 94.3983 323.973 97.4903C322.592 101.109 320.182 104.083 318.239 107.364C314.831 113.111 312.802 119.901 308.61 124.968C311.32 135.442 314.293 145.906 315.197 156.761C315.25 157.06 315.218 157.37 315.106 157.648C314.99 157.83 314.839 157.981 314.665 158.091L307.657 163.165C306.893 163.657 306.209 164.289 305.631 165.035C304.384 166.824 304.525 169.355 303.746 171.443C303.32 172.462 302.715 173.375 301.967 174.125C301.22 174.876 300.346 175.449 299.397 175.811C297.488 176.531 295.458 176.755 293.463 176.465C290.92 176.263 288.479 175.273 286.41 173.605C284.648 172.079 283.401 169.948 282.198 167.849C281.306 166.417 280.568 164.871 279.998 163.244C279.273 160.922 279.25 158.399 279.299 155.933C279.358 151.24 279.797 146.562 280.611 141.957C280.951 140.129 281.37 138.327 281.643 136.485C282.19 132.778 282.121 128.989 282.534 125.262C283.09 121.07 283.958 116.937 285.131 112.908C285.774 110.411 286.282 107.873 286.651 105.307C287.345 100.796 288.686 96.4468 290.028 92.1231L292.33 84.7119C292.82 83.1116 293.315 81.5177 293.894 79.9559C294.971 77.0394 296.351 74.2009 296.735 71.0833C297.162 67.683 293.927 63.616 295.057 60.4293C295.15 60.0777 295.641 59.6163 295.891 59.845Z" fill="#3F3D56"/>
<path d="M323.943 80.7216C325.487 81.5212 326.327 83.4034 326.866 85.2201C328.081 89.3143 328.344 93.6914 327.631 97.9364C327.403 99.0031 327.244 100.087 327.155 101.179C327.156 102.446 327.256 103.71 327.453 104.957C327.972 109.774 327.371 114.658 327.514 119.517C327.658 124.979 328.667 130.758 326.586 135.704C325.204 138.99 322.619 141.421 320.069 143.627C310.578 151.798 300.125 158.451 289.011 163.396C290.942 160.832 291.009 156.951 289.764 153.901C288.519 150.852 286.176 148.548 283.666 146.752C286.887 145.977 290.01 144.754 292.964 143.113C298.859 139.816 303.929 134.957 308.936 130.149C309.673 129.563 310.251 128.757 310.602 127.823C311.122 125.94 309.749 124.135 308.8 122.472C305.926 117.414 306.659 110.845 307.93 105.029C309.344 98.655 311.397 92.3113 315.086 87.2085C317.386 84.0193 320.374 81.5783 323.943 80.7216Z" fill="#3F3D56"/>
<path d="M288.517 163.549C288.006 164.466 287.346 165.267 286.571 165.91C284.881 167.154 282.578 166.656 280.71 165.747C278.974 164.901 277.376 163.737 275.981 162.303C275.382 161.575 274.672 160.972 273.885 160.523C272.424 159.881 270.37 160.336 269.56 158.813C269.466 158.652 269.421 158.462 269.431 158.27C269.486 157.723 270.125 157.578 270.618 157.551C272.905 157.4 275.13 156.65 277.115 155.36C276.489 154.843 275.955 154.198 275.541 153.459C275.369 153.201 275.277 152.886 275.28 152.563C275.351 152.213 275.525 151.9 275.775 151.674C277.59 149.781 279.865 148.537 282.31 148.1C284.755 147.664 287.258 148.055 289.501 149.224C289.94 149.428 290.323 149.756 290.613 150.177C290.817 150.565 290.952 150.993 291.011 151.439C291.36 153.204 292.653 155.857 292.162 157.634C291.618 159.674 289.612 161.828 288.517 163.549Z" fill="#FBBEBE"/>
<path d="M250.41 155.289C257.451 146.308 260.665 134.437 263.652 122.954L265.788 114.793L270.939 95.1368C271.697 92.2364 272.455 89.336 272.967 86.3768C273.845 81.269 273.968 76.0414 273.962 70.8442C273.909 68.6892 273.488 66.5667 272.722 64.592C272.247 63.2288 272.024 61.7798 271.638 60.3734C271.149 58.4131 270.409 56.5437 269.44 54.824C269.171 54.3129 268.833 53.8516 268.439 53.4564C267.754 52.9243 266.977 52.5617 266.158 52.3925C264.383 51.7826 262.541 51.4514 260.685 51.4083C258.826 51.4679 256.905 52.1751 255.693 53.7504C254.77 54.9568 254.337 56.5261 253.603 57.8852C253.262 58.4414 252.953 59.0208 252.676 59.6202C252.36 60.5317 252.182 61.4955 252.148 62.4722C251.823 66.4334 251.541 70.3991 251.301 74.3694C251.191 76.1743 251.091 77.9918 251.137 79.8043C251.176 81.214 251.298 82.6181 251.421 84.0223L252.63 97.7743C252.911 101.004 252.667 104.022 252.896 107.259C253.457 115.072 251.896 122.867 250.296 130.517C249.532 134.153 248.744 137.84 247.149 141.123C245.741 144.031 243.644 146.976 244.165 150.234C244.346 151.368 244.846 152.429 244.915 153.575C244.871 154.284 244.927 154.996 245.082 155.684C245.306 156.153 245.658 156.53 246.085 156.76C246.513 156.99 246.995 157.061 247.461 156.963C248.572 156.753 249.6 156.17 250.41 155.289Z" fill="#3F3D56"/>
<path d="M251.569 119.114C251.767 120.922 251.589 122.751 251.652 124.57C251.807 126.914 252.163 129.234 252.712 131.5C253.251 134.022 253.943 136.847 255.908 138.26C256.401 138.554 256.872 138.892 257.316 139.273C257.534 139.47 257.694 139.737 257.773 140.039C257.853 140.341 257.848 140.663 257.76 140.963L256.223 140.66C256.397 140.812 256.539 141.003 256.642 141.221C256.745 141.439 256.806 141.679 256.821 141.925C256.836 142.172 256.804 142.419 256.728 142.651C256.652 142.883 256.533 143.095 256.379 143.272C256.225 143.449 256.04 143.587 255.835 143.678C255.631 143.769 255.411 143.811 255.192 143.8C254.972 143.789 254.757 143.727 254.561 143.616C254.364 143.506 254.191 143.35 254.052 143.158C254.105 143.726 254.053 144.3 253.897 144.843C253.817 145.11 253.666 145.343 253.464 145.51C253.263 145.677 253.02 145.77 252.77 145.777C252.48 145.724 252.206 145.592 251.972 145.393L247.977 142.559C246.778 141.82 245.786 140.723 245.109 139.389L243.376 136.398C242.994 135.821 242.692 135.182 242.48 134.503C241.846 131.98 243.701 129.203 242.77 126.822C242.489 126.236 242.158 125.681 241.781 125.166C239.776 122.002 239.941 117.725 240.198 113.827C240.282 112.512 240.509 110.954 241.572 110.39C242.415 109.938 243.419 110.356 244.193 110.935C244.966 111.514 245.648 112.275 246.53 112.622C247.088 112.841 247.704 112.871 248.261 113.103C249.043 113.418 249.76 114.625 250.28 115.341C251.015 116.438 251.462 117.745 251.569 119.114Z" fill="#FBBEBE"/>
<path d="M202.991 62.154C202.505 63.3766 201.828 64.4918 200.992 65.4465C200.572 65.9236 200.058 66.2834 199.493 66.4972C198.927 66.7109 198.324 66.7725 197.734 66.6771C196.494 66.3897 195.591 65.2306 194.777 64.1351C192.652 61.2793 190.498 58.3855 189.083 55.0135C186.92 49.8797 186.618 44.0382 186.347 38.3668C186.281 36.9065 186.227 35.3582 186.859 34.0863C187.662 32.4636 189.343 31.7103 190.894 31.0754L199.462 27.5621C199.988 27.2881 200.568 27.1737 201.144 27.2304C202.48 27.4935 202.957 29.3096 203.309 30.7787C203.938 33.4185 204.999 35.9026 206.438 38.104C208.328 40.9893 212.589 44.8889 210.106 48.4479C207.108 52.7134 205.188 57.3279 202.991 62.154Z" fill="#BE6F72"/>
<path d="M214.055 45.876C217.761 49.859 218.974 56.0229 218.745 61.7781C218.517 67.5333 217.047 73.1332 216.187 78.8138C215.327 84.4944 215.112 90.5643 217.268 95.8113C218.009 97.6108 219.025 99.2806 219.535 101.179C219.96 103.054 220.093 104.999 219.928 106.927C219.901 108.96 219.539 110.971 218.858 112.857C217.64 115.817 215.171 117.859 212.809 119.727C207.989 123.574 203.074 127.483 197.435 129.468C193.617 130.813 189.582 131.232 185.594 131.443C182.893 131.662 180.179 131.552 177.501 131.116C172.816 130.197 168.526 127.595 165.274 123.7C164.707 123.072 164.242 122.338 163.899 121.531C163.566 120.481 163.41 119.37 163.44 118.255C163.34 114.122 163.398 109.991 163.612 105.861C163.749 101.925 164.265 98.0158 165.151 94.2027C166.258 89.8078 168.146 85.6963 169.588 81.4175C174.608 66.5421 174.26 49.5634 181.176 35.692C182.668 32.6972 185.147 29.5535 188.166 30.0574C188.747 30.1017 189.292 30.3892 189.693 30.8632C190.036 31.4388 190.224 32.1129 190.237 32.8058C190.901 39.5816 191.866 46.5362 194.653 52.6694C195.752 55.076 197.4 58.7394 199.976 59.4032C202.551 60.0669 204.098 57.3117 205.497 55.3605C207.958 51.7816 210.836 48.5913 214.055 45.876Z" fill="#E3E8F4"/>
<path d="M232.039 35.8432C232.798 36.313 233.505 36.8807 234.147 37.5349C235.811 39.336 236.404 42.078 236.37 44.67C236.337 47.262 235.766 49.8117 235.409 52.3758C234.448 59.2887 235.155 66.3795 235.453 73.3913C235.553 74.5238 235.483 75.6675 235.245 76.7746C234.962 77.8293 234.389 78.7556 234.016 79.778C232.921 82.8014 233.697 86.2686 233.043 89.4467C232.343 92.8321 230.015 95.8953 230.417 99.3404C230.579 100.688 231.145 101.933 231.38 103.269C231.615 104.604 231.389 106.213 230.358 106.922C229.327 107.63 227.843 107.095 226.619 107.481C226.121 107.683 225.636 107.923 225.168 108.199C223.273 109.139 221.025 108.793 219.176 107.732C217.364 106.6 215.738 105.126 214.37 103.375C212.258 100.903 210.215 98.1992 209.308 94.9259C207.982 90.183 209.241 85.0406 210.765 80.3598C212.288 75.679 214.098 70.9503 213.877 65.9589C213.755 63.1642 212.995 60.4711 212.548 57.724C211.998 53.9184 211.823 50.0556 212.024 46.2052C212.121 43.3873 212.314 40.482 213.416 37.9432C214.201 36.25 215.351 34.8046 216.761 33.7393C218.171 32.674 219.795 32.0229 221.486 31.8459C225.409 31.4012 228.749 33.6759 232.039 35.8432Z" fill="#3F3D56"/>
<path opacity="0.1" d="M220.934 96.5671C220.956 98.5807 221.26 100.577 221.835 102.483C222.859 99.9246 223.001 97.0441 223.159 94.2518C223.801 84.6369 225.777 75.5807 227.877 66.2802C226.394 67.526 225.539 70.6647 224.817 72.5461C221.953 80.1335 220.626 88.339 220.934 96.5671Z" fill="black"/>
<path d="M183.766 29.2148C181.061 29.9908 178.705 31.7702 176.081 32.9244C173.355 34.1595 170.428 34.6694 167.571 35.4189C160.961 37.1621 154.31 40.4463 150.276 46.5969C147.304 51.1207 146.041 56.7286 143.987 61.8642C142.271 66.1722 139.997 70.2048 138.721 74.6927C137.053 80.5488 137.184 86.8419 137.53 92.9732C137.811 98.0092 138.261 103.103 140.255 107.581C141.299 109.931 142.748 112.038 143.791 114.388C145.044 117.211 145.689 120.318 146.728 123.222C147.767 126.125 149.304 129.032 151.76 130.563L155.87 127.912C162.001 123.956 168.132 119.994 174.076 115.691C179.258 111.96 184.491 107.669 187.287 101.489C189.763 96.03 190.059 89.6273 189.484 83.538C188.909 77.4488 187.526 71.4848 186.839 65.4135C185.963 57.7719 186.17 50.0201 187.455 42.4468C188.044 39.029 189.563 35.5059 189.9 32.0985C190.273 28.4586 186.106 28.5426 183.766 29.2148Z" fill="#3F3D56"/>
<path d="M157.648 129.015C160.749 132.37 165.242 133.378 169.138 135.405C172.033 136.947 174.633 139.106 176.794 141.763C177.985 143.258 179.132 145.287 178.511 147.169C177.988 148.788 176.419 149.605 174.98 150.197C173.194 150.937 171.201 151.587 169.432 150.811C168.395 150.355 167.563 149.454 166.611 148.811C164.278 147.224 161.322 147.193 158.927 145.725C155.552 143.658 153.9 139.157 150.729 136.708C148.994 135.372 146.59 134.269 146.431 131.908C146.43 131.055 146.598 130.212 146.922 129.44C147.583 127.52 148.736 120.917 151.187 121.114C153.856 121.332 155.674 127.407 157.648 129.015Z" fill="#FBBEBE"/>
<path d="M141.5 99.3876C142.49 103.536 144.839 107.086 147.28 110.391C149.034 112.766 150.961 115.349 150.996 118.439C151.027 121.359 149.269 124.03 147.017 125.502C144.764 126.974 142.123 127.43 139.53 127.597C137.454 127.803 135.363 127.622 133.342 127.059C128.238 125.455 124.732 120.411 120.739 116.501C118.369 114.184 115.698 112.16 113.892 109.27C112.086 106.379 111.349 102.245 113.176 99.3599C113.835 98.4253 114.594 97.5863 115.437 96.8624C118.52 93.9094 121.157 90.4152 123.246 86.5158C124.088 84.9437 124.898 83.2392 126.3 82.3011C128.31 80.9529 130.869 81.5976 133.125 82.2838C135.576 83.0283 142.49 84.5029 142.941 88.0303C143.125 89.479 141.51 91.7177 141.256 93.2697C140.932 95.305 141.016 97.3949 141.5 99.3876Z" fill="#FBBEBE"/>
<path d="M154.092 107.385C154.812 108.885 155.403 110.46 155.854 112.087C157.505 118.771 154.395 125.615 152.882 132.347C150.95 140.97 151.662 150.011 151.497 158.9C151.423 162.964 150.998 167.434 148.371 170.231C147.693 170.942 146.882 171.539 146.421 172.441C146.135 173.103 145.92 173.8 145.781 174.518C145.371 176.07 144.653 177.497 143.683 178.694C142.713 179.891 141.516 180.827 140.179 181.432C138.843 182.036 137.404 182.294 135.968 182.185C134.532 182.077 133.137 181.605 131.887 180.805C129.777 179.46 127.955 177.141 125.526 177.051C124.761 177.086 123.999 177.174 123.245 177.315C120.824 177.565 118.464 176.538 116.205 175.531C115.666 175.334 115.163 175.027 114.724 174.625C114.319 174.2 114.06 173.631 113.689 173.175C112.32 171.49 109.955 171.759 107.966 171.276C106.482 170.89 105.128 170.037 104.061 168.817C102.993 167.596 102.258 166.06 101.939 164.386C101.555 162.218 101.915 159.981 102.27 157.801L103.853 148.087C104.513 144.525 104.98 140.921 105.25 137.296C105.469 133.198 105.191 129.087 104.424 125.076C103.792 121.799 102.834 118.588 102.504 115.25C101.931 109.269 103.381 103.26 106.567 98.4162C107.355 97.2211 108.384 96.0281 109.707 95.9262C110.777 95.8283 111.773 96.4786 112.697 97.1031C120.725 102.541 128.809 107.868 136.95 113.084C139.177 114.519 141.455 115.96 143.946 116.68C144.694 116.9 145.77 116.821 145.883 115.966C145.9 115.64 145.826 115.317 145.673 115.04C144.299 112.001 142.295 109.386 140.707 106.491C139.119 103.595 137.905 100.175 138.41 96.8317C139.099 92.2067 142.954 89.1754 146.053 92.8323C149.528 96.9831 151.834 102.301 154.092 107.385Z" fill="#F86D70"/>
<path d="M128.521 165.89C135.084 166.418 141.793 166.978 147.848 169.861C149.795 170.784 151.856 171.972 153.915 171.429C154.941 171.088 155.897 170.524 156.729 169.767C159.278 167.703 161.689 165.431 163.942 162.97C163.73 161.591 162.069 161.388 160.826 161.39C157.795 161.384 154.813 160.551 152.135 158.962C151.255 158.357 150.321 157.858 149.348 157.473C146.696 156.626 143.973 158.176 141.296 158.92C137.334 160.019 133.174 159.323 129.143 158.622L118.264 156.723C117.252 156.551 116.111 156.409 115.299 157.107C114.755 157.674 114.38 158.416 114.223 159.23C112.847 164.252 113.482 164.679 117.913 165.032L128.521 165.89Z" fill="#FBBEBE"/>
<path opacity="0.1" d="M278.028 79.8074C287.922 79.8918 296.02 70.9464 296.115 59.8274C296.21 48.7083 288.266 39.6261 278.371 39.5417C268.477 39.4573 260.379 48.4027 260.285 59.5217C260.19 70.6408 268.134 79.723 278.028 79.8074Z" fill="black"/>
<path d="M277.907 78.9315C287.801 79.0159 295.899 70.0706 295.994 58.9515C296.089 47.8325 288.145 38.7503 278.25 38.6659C268.356 38.5815 260.259 47.5268 260.164 58.6459C260.069 69.7649 268.013 78.8471 277.907 78.9315Z" fill="#FBBEBE"/>
<path d="M293.418 33.3655C294.843 34.3718 296.334 35.4542 297.104 37.1344C297.516 38.2742 297.826 39.457 298.031 40.6658C298.979 44.4491 301.56 47.7492 301.683 51.6827C301.82 55.9939 298.91 59.7128 295.632 61.9436C294.884 62.5533 293.984 62.8845 293.06 62.8907C292.115 62.8134 291.303 62.1395 290.439 61.7043C286.776 59.8358 282.642 62.1286 278.736 63.1649C274.677 64.2292 270.431 63.9127 266.538 62.2554C264.446 61.3567 262.42 60.0181 261.121 57.9622C259.823 55.9062 259.377 53.0395 260.516 50.8534C261.085 49.7382 262.023 48.7332 261.973 47.4555C261.945 46.6877 261.548 45.9922 261.432 45.2362C261.263 44.033 261.832 42.8675 262.412 41.8469C265.043 37.1833 268.353 33.049 272.203 29.617C273.331 28.5948 274.633 27.5991 276.1 27.5362C279.046 27.4166 281.556 29.9044 284.585 29.9429C288.022 29.9848 290.48 31.2893 293.418 33.3655Z" fill="#3F3D56"/>
<path opacity="0.1" d="M212.165 53.9823C222.368 54.0694 230.719 44.8445 230.817 33.378C230.914 21.9114 222.722 12.5454 212.519 12.4584C202.315 12.3713 193.965 21.5962 193.867 33.0628C193.769 44.5293 201.961 53.8953 212.165 53.9823Z" fill="black"/>
<path d="M212.494 53.476C222.697 53.563 231.048 44.3381 231.146 32.8716C231.244 21.4051 223.051 12.0391 212.848 11.952C202.645 11.865 194.294 21.0899 194.196 32.5564C194.098 44.0229 202.29 53.3889 212.494 53.476Z" fill="#BE6F72"/>
<path d="M222.442 44.5258C225.037 46.1901 228.258 46.0477 231.175 45.3239C232.829 44.9893 234.401 44.2603 235.784 43.1862C236.472 42.6439 237.041 41.9335 237.448 41.1086C237.856 40.2837 238.091 39.3658 238.137 38.4244C238.155 36.3167 236.94 34.4062 236.807 32.2972C236.645 29.6406 238.205 27.2001 238.39 24.5339C238.575 21.8676 237.426 19.4543 236.303 17.1545C234.372 13.2055 232.362 9.20556 229.398 6.17271C226.434 3.13987 222.308 1.18562 218.38 2.16512C216.45 2.64572 214.654 3.79441 212.687 4.00415C210.939 4.1717 209.22 3.56559 207.481 3.29907C205.742 3.03256 203.787 3.17318 202.527 4.51521C201.837 5.26436 201.392 6.3239 200.586 6.87072C200.041 7.14749 199.477 7.37619 198.901 7.55475C196.872 8.44978 195.926 11.0025 195.19 13.2991L190.255 28.729C191.851 30.001 193.783 30.59 195.532 31.5739C197.282 32.5578 198.976 34.1201 199.316 36.2874C199.577 37.9318 199.04 39.8148 199.879 41.1936C200.647 42.4586 202.229 42.686 203.575 42.4836C204.92 42.2811 206.274 41.7704 207.615 42.0147C210.97 42.6159 212.198 44.9418 215.33 42.0805C218.462 39.2192 219.569 42.6766 222.442 44.5258Z" fill="#3F3D56"/>
<path opacity="0.1" d="M133.598 97.7412C142.873 97.8203 150.465 89.4341 150.554 79.0099C150.643 68.5858 143.195 60.0713 133.92 59.9922C124.644 59.913 117.052 68.2993 116.963 78.7234C116.874 89.1475 124.322 97.6621 133.598 97.7412Z" fill="black"/>
<path d="M134.258 96.7204C143.533 96.7996 151.125 88.4133 151.214 77.9892C151.303 67.5651 143.855 59.0505 134.58 58.9714C125.304 58.8923 117.712 67.2785 117.623 77.7026C117.534 88.1267 124.982 96.6413 134.258 96.7204Z" fill="#FBBEBE"/>
<path d="M147.435 59.5024C143.466 56.0207 138.996 53.327 134.217 51.5373C131.159 50.3912 127.829 49.5952 124.707 50.6005C120.474 51.9171 114.808 53.8885 112.16 57.8361C110.856 59.7755 109.534 61.7714 108.893 64.1002C107.61 68.7831 109.336 73.7999 109.177 78.6937C108.988 84.3989 106.251 89.5853 103.272 94.216C100.293 98.8466 99.6429 105.511 97.8615 110.869C97.2523 112.707 97.0402 115.266 98.5606 116.204C99.8971 117.052 101.53 116.022 102.781 115.026L110.307 109.018C110.892 108.486 111.565 108.09 112.288 107.852C113.831 107.463 115.327 108.558 116.606 109.594L132.176 122.185C132.492 121.477 132.665 120.699 132.685 119.908C132.704 119.117 132.568 118.331 132.287 117.605C133.755 118.127 134.813 119.514 136.098 120.507C137.383 121.499 139.345 121.837 140.297 120.474C141.25 119.11 140.554 117.261 139.517 116.144C138.479 115.028 137.108 114.356 136.093 113.208C134.08 110.92 133.904 107.332 132.646 104.452C131.745 102.431 130.276 100.732 129.645 98.5811C128.616 95.0677 130.031 91.3045 131.415 87.9439C133.067 83.9563 134.934 79.6999 138.395 77.6405C139.56 76.9458 140.846 76.5415 142.038 75.9099C145.008 74.3433 148.729 70.6188 150.202 67.2651C151.493 64.2875 149.569 61.383 147.435 59.5024Z" fill="#3F3D56"/>
<path opacity="0.1" d="M121.48 121.66C123.076 122.825 124.884 123.577 126.453 124.792C128.021 126.007 129.388 127.843 129.415 129.983C129.442 132.028 128.262 133.811 127.129 135.425L113.32 155.422L120.255 157.551C119.121 159.278 118.816 161.49 118.217 163.524C117.617 165.557 116.502 167.668 114.638 168.187C112.955 168.657 111.205 167.648 109.469 167.747C108.186 167.824 106.971 168.493 105.688 168.539C104.036 168.594 102.511 167.606 101.142 166.562C98.0939 164.227 95.0766 160.892 95.1344 156.739C95.219 155.336 95.4816 153.952 95.9141 152.631C97.9868 145.281 100.134 137.755 104.351 131.663C106.619 128.41 109.38 125.672 112.141 122.952C112.769 122.253 113.507 121.69 114.316 121.29C116.114 120.551 118.06 121.499 119.908 122.118C121.756 122.738 124.09 122.846 125.174 121.075" fill="black"/>
<path d="M120.902 120.416C122.499 121.575 124.307 122.333 125.875 123.548C127.444 124.763 128.811 126.599 128.843 128.733C128.876 130.866 127.691 132.567 126.557 134.181L112.743 154.159L119.678 156.289C118.544 158.016 118.239 160.221 117.64 162.261C117.04 164.301 115.925 166.406 114.061 166.924C112.378 167.395 110.628 166.386 108.892 166.484C107.609 166.555 106.394 167.23 105.111 167.27C103.459 167.325 101.934 166.337 100.565 165.293C97.5169 162.964 94.4996 159.623 94.563 155.477C94.642 154.073 94.9028 152.689 95.3371 151.368C97.4098 144.012 99.5568 136.486 103.774 130.4C106.042 127.141 108.808 124.403 111.564 121.658C112.195 120.963 112.932 120.4 113.739 119.996C115.537 119.257 117.483 120.204 119.331 120.831C121.179 121.457 123.513 121.558 124.597 119.787" fill="#F86D70"/>
<g opacity="0.1">
<path opacity="0.1" d="M261.741 53.7962C263.039 55.8521 265.071 57.1971 267.157 58.0895C271.049 59.7531 275.297 60.0698 279.355 58.9989C283.283 57.9628 287.396 55.6698 291.058 57.5383C291.922 57.9798 292.728 58.6474 293.674 58.7309C294.6 58.7201 295.5 58.387 296.252 57.7777C298.533 56.2241 300.635 53.9518 301.654 51.2612C301.653 51.3997 301.652 51.5381 301.684 51.6831C301.821 55.9942 298.912 59.7131 295.634 61.944C294.885 62.5536 293.985 62.8848 293.062 62.891C292.116 62.8137 291.304 62.1398 290.44 61.7046C286.778 59.8361 282.643 62.1289 278.737 63.1652C274.679 64.2296 270.433 63.913 266.54 62.2558C264.448 61.3571 262.421 60.0185 261.123 57.9625C259.825 55.9065 259.379 53.0399 260.517 50.8537L260.603 50.6971C260.774 51.8121 261.163 52.8703 261.741 53.7962Z" fill="black"/>
<path opacity="0.1" d="M262.575 43.2882C262.612 44.2574 262.084 45.0646 261.579 45.8845C261.511 45.6796 261.458 45.4687 261.422 45.254C261.263 44.1264 261.754 43.0358 262.294 42.0525C262.444 42.4457 262.538 42.8625 262.575 43.2882Z" fill="black"/>
</g>
<path opacity="0.1" d="M196.517 11.2589L191.582 26.6825C193.178 27.9545 195.11 28.5498 196.86 29.5274C198.609 30.505 200.303 32.0736 200.643 34.2409C200.904 35.8854 200.367 37.7684 201.206 39.1535C201.974 40.4184 203.556 40.6395 204.902 40.4434C206.247 40.2472 207.601 39.7303 208.942 39.9745C212.297 40.5757 213.525 42.9016 216.657 40.0718C219.788 37.2419 220.885 40.6426 223.758 42.4918C226.353 44.1625 229.573 44.02 232.491 43.2899C234.144 42.9572 235.716 42.2304 237.1 41.1585C237.297 40.9806 237.486 40.791 237.665 40.5907C237.227 41.6182 236.574 42.511 235.761 43.192C234.378 44.2661 232.806 44.9951 231.152 45.3297C228.235 46.0535 224.986 46.1957 222.419 44.5316C219.546 42.6824 218.387 39.3441 215.318 42.1115C212.249 44.879 210.947 42.6153 207.603 42.0457C206.262 41.8015 204.914 42.3122 203.563 42.5146C202.211 42.717 200.635 42.4896 199.867 41.2247C199.028 39.8459 199.565 37.9629 199.304 36.3184C198.964 34.1511 197.27 32.5825 195.52 31.6049C193.771 30.6273 191.839 30.0257 190.243 28.76L195.201 13.2926C195.775 11.5924 196.407 9.75423 197.537 8.54952C197.141 9.42508 196.801 10.3304 196.517 11.2589Z" fill="black"/>
<g opacity="0.1">
<path opacity="0.1" d="M133.529 118.297C134.761 118.937 136.322 119.045 137.116 117.875C138.005 116.624 137.373 114.668 136.335 113.546C135.298 112.423 133.926 111.757 132.911 110.61C130.899 108.327 130.722 104.739 129.464 101.859C128.563 99.8321 127.094 98.1333 126.463 95.9824C125.435 92.4753 126.85 88.7058 128.233 85.3514C129.886 81.3638 131.753 77.1075 135.214 75.0481C136.378 74.3534 137.664 73.9491 138.856 73.3175C141.826 71.7509 145.547 68.0201 147.021 64.6664C148.26 61.8393 146.57 59.069 144.548 57.1831C145.533 57.9151 146.495 58.6846 147.429 59.5042C149.568 61.4101 151.486 64.2893 150.162 67.2541C148.689 70.6077 144.967 74.3323 141.998 75.8988C140.806 76.5178 139.52 76.9347 138.355 77.6295C134.894 79.6889 133.027 83.9452 131.375 87.9328C129.986 91.2934 128.571 95.0565 129.604 98.57C130.236 100.721 131.705 102.42 132.606 104.441C133.88 107.321 134.04 110.909 136.053 113.197C137.068 114.345 138.439 115.011 139.477 116.133C140.514 117.256 141.13 119.186 140.257 120.463C139.384 121.739 137.337 121.457 136.058 120.496C135.195 119.828 134.414 118.953 133.529 118.297Z" fill="black"/>
<path opacity="0.1" d="M99.6224 112.427L107.148 106.426C107.733 105.892 108.407 105.494 109.129 105.253C110.672 104.87 112.169 105.965 113.447 107.002L129.017 119.593C129.333 118.883 129.507 118.105 129.526 117.313C129.545 116.52 129.41 115.733 129.129 115.007C130.563 115.522 131.599 116.878 132.839 117.832C132.658 117.738 132.472 117.659 132.281 117.594C132.562 118.32 132.698 119.106 132.678 119.897C132.659 120.689 132.485 121.466 132.169 122.174L116.6 109.583C115.321 108.547 113.819 107.452 112.281 107.841C111.559 108.079 110.886 108.475 110.301 109.007L102.775 115.015C101.523 116.011 99.891 117.041 98.5545 116.193C98.1891 115.936 97.8906 115.575 97.6888 115.147C97.487 114.719 97.3892 114.239 97.4051 113.755C98.2008 113.444 98.9488 112.996 99.6224 112.427Z" fill="black"/>
</g>
<path d="M285.997 155.108C285.997 155.108 253.893 157.722 247.555 152.559L276.945 147.725L285.997 155.108Z" fill="#E3E8F4"/>
<path opacity="0.1" d="M285.997 155.108C285.997 155.108 253.893 157.722 247.555 152.559L276.945 147.725L285.997 155.108Z" fill="black"/>
<path d="M285.997 155.108L277.066 148.639C277.066 148.639 250.187 157.068 242.872 153.431L250.446 141.711L276.956 147.757L285.997 155.108Z" fill="#E3E8F4"/>
<path d="M246.86 70.009C245.857 71.4071 245.049 72.9681 244.463 74.6383C244.198 75.5232 244.061 76.4469 243.835 77.3448C243.202 79.58 242.238 81.6798 240.983 83.5558C238.184 88.0432 234.699 92.3675 233.958 97.7786C233.599 100.45 233.946 103.171 234.393 105.823C234.633 107.572 235.062 109.281 235.671 110.912C236.368 112.642 237.413 114.167 238.21 115.841C238.938 117.484 239.549 119.189 240.037 120.941C241.003 119.873 241.581 118.437 242.359 117.185C243.137 115.934 244.288 114.811 245.638 114.804C247.194 114.817 248.464 116.275 250.001 116.514C250.241 116.571 250.491 116.547 250.719 116.445C251.281 116.154 251.333 115.305 251.294 114.625C250.892 109.871 248.514 105.164 249.695 100.568C250.784 96.3177 254.569 93.6885 256.578 89.8864C258.035 87.124 258.488 83.8561 258.896 80.6758C259.404 76.8735 259.918 73.0398 259.738 69.2065C259.648 67.2741 258.387 55.0569 255.879 56.3128C255.007 56.7458 254.235 58.6079 253.685 59.4401L251.415 62.9883L246.86 70.009Z" fill="#3F3D56"/>
<path d="M179.18 148.175L161.029 164.499L137.896 159.646L153.617 146.013L179.18 148.175Z" fill="#E3E8F4"/>
<path opacity="0.1" d="M179.837 147.155L161.686 163.479L138.554 158.626L154.274 144.993L179.837 147.155Z" fill="black"/>
<path d="M179.716 146.281L161.565 162.598L138.427 157.751L154.153 144.112L179.716 146.281Z" fill="#E3E8F4"/>
<path opacity="0.1" d="M180.254 144.378L162.098 160.702L138.965 155.848L154.691 142.216L180.254 144.378Z" fill="black"/>
<path d="M180.127 143.503L161.976 159.827L138.844 154.973L154.564 141.341L180.127 143.503Z" fill="#E3E8F4"/>
<path d="M415.117 370.665C415.543 370.436 416.013 370.328 416.485 370.35C416.957 370.372 417.417 370.523 417.824 370.79C418.232 371.057 418.575 371.432 418.824 371.882C419.073 372.333 419.221 372.845 419.253 373.374L420.131 387.986L414.175 389.143L411.13 378.559L415.117 370.665Z" fill="#3F3D56"/>
<path d="M207.94 271.014L116.506 322.13C115.457 322.719 114.574 323.624 113.955 324.743C113.335 325.862 113.004 327.151 112.997 328.467C112.99 329.784 113.309 331.076 113.917 332.2C114.525 333.324 115.4 334.235 116.442 334.833L311.473 447.028C314.943 449.02 318.797 450.022 322.697 449.945C326.596 449.869 330.42 448.716 333.833 446.589L416.823 394.986C417.83 394.352 418.664 393.422 419.236 392.296C419.808 391.169 420.096 389.89 420.068 388.594C420.041 387.299 419.699 386.038 419.08 384.946C418.461 383.854 417.588 382.974 416.555 382.4L213.534 270.992C212.663 270.514 211.706 270.268 210.736 270.272C209.766 270.275 208.81 270.529 207.94 271.014Z" fill="#3F3D56"/>
<path d="M115.972 313.096L113.102 315.45L112.781 326.835C112.756 327.723 112.953 328.6 113.35 329.367C113.748 330.134 114.329 330.759 115.029 331.171L313.37 447.817C313.82 448.083 314.324 448.214 314.832 448.199C315.341 448.183 315.838 448.02 316.275 447.726C316.712 447.432 317.075 447.017 317.329 446.52C317.582 446.024 317.718 445.463 317.723 444.891L317.864 428.35L115.972 313.096Z" fill="#3F3D56"/>
<path d="M208.052 257.814L116.618 308.924C115.569 309.512 114.684 310.415 114.063 311.532C113.442 312.65 113.109 313.939 113.101 315.255C113.092 316.572 113.409 317.864 114.016 318.989C114.623 320.114 115.496 321.027 116.538 321.627L311.585 433.822C315.056 435.812 318.91 436.813 322.809 436.736C326.707 436.66 330.532 435.508 333.945 433.383L416.935 381.773C417.942 381.14 418.777 380.21 419.348 379.083C419.92 377.957 420.208 376.677 420.181 375.382C420.153 374.087 419.811 372.825 419.192 371.734C418.573 370.642 417.7 369.761 416.668 369.187L213.646 257.786C212.775 257.309 211.817 257.064 210.847 257.069C209.878 257.073 208.921 257.329 208.052 257.814Z" fill="#E3E8F4"/>
<path d="M226.805 267.394L126.06 323.747L297.549 422.043L401.444 363.949L226.805 267.394Z" fill="#3F3D56"/>
<path d="M360.755 404.977C366.596 405.027 371.357 401.915 371.39 398.027C371.424 394.139 366.716 390.947 360.875 390.897C355.034 390.847 350.273 393.959 350.24 397.847C350.206 401.735 354.914 404.927 360.755 404.977Z" fill="#3F3D56"/>
<path d="M168.875 286.267C169.416 286.271 169.859 285.782 169.864 285.174C169.869 284.566 169.435 284.069 168.894 284.065C168.353 284.06 167.91 284.549 167.905 285.157C167.899 285.765 168.334 286.262 168.875 286.267Z" fill="#3F3D56"/>
<path d="M165.867 295.043C166.516 295.049 167.047 294.462 167.054 293.732C167.06 293.002 166.539 292.406 165.889 292.401C165.24 292.395 164.709 292.982 164.702 293.712C164.696 294.442 165.217 295.038 165.867 295.043Z" fill="#3F3D56"/>
<path d="M170.202 291.556L182.006 285.497" stroke="#3F3D56" stroke-miterlimit="10"/>
<path d="M274.057 321.082L240.7 342.322C235.854 345.408 234.143 352.32 236.88 357.76C239.616 363.201 245.764 365.109 250.61 362.023L283.967 340.783C288.813 337.697 290.524 330.785 287.787 325.344C285.051 319.904 278.903 317.996 274.057 321.082Z" fill="#009688"/>
<path d="M303.583 338.324L270.227 359.564C265.38 362.65 263.67 369.562 266.406 375.002C269.143 380.443 275.29 382.351 280.137 379.265L313.493 358.025C318.34 354.938 320.05 348.026 317.314 342.586C314.577 337.146 308.43 335.238 303.583 338.324Z" fill="#009688"/>
<path d="M247.351 301.351L213.995 322.591C209.148 325.677 207.438 332.589 210.174 338.029C212.911 343.469 219.058 345.378 223.905 342.292L257.261 321.051C262.108 317.965 263.818 311.053 261.081 305.613C258.345 300.173 252.198 298.264 247.351 301.351Z" fill="#009688"/>
</svg>
