<svg width="51" height="51" viewBox="0 0 51 51" fill="none" xmlns="http://www.w3.org/2000/svg">
<path d="M51 25.5C51 39.1243 40.315 50.2537 26.8676 50.9635C26.4149 50.9874 25.959 51 25.5 51C24.1595 51 22.8438 50.897 21.5595 50.6971C20.4437 50.5243 19.3529 50.2797 18.2913 49.9665C16.5916 49.4668 14.9669 48.7955 13.4359 47.9712C10.4134 46.3455 7.75718 44.1275 5.62146 41.4724C5.19164 40.9395 4.78364 40.3878 4.39746 39.8195C1.62164 35.7375 0 30.8082 0 25.5C0 11.4167 11.4167 0 25.5 0C39.5833 0 51 11.4167 51 25.5Z" fill="black"/>
<path d="M40.9179 18.5532C40.4393 17.2755 39.571 16.167 38.3111 15.2235C37.5806 14.6767 36.6253 14.1865 35.4901 13.7406L36.7467 8.9092L32.7749 7.87466L31.5602 12.5426L29.0068 11.8784L30.2207 7.2104L26.249 6.17578L25.0343 10.8437L16.6025 8.64815L15.5806 12.5763L16.6977 12.8678C17.4414 13.0608 17.9297 13.2611 18.1603 13.4656C18.3876 13.6692 18.5272 13.9015 18.5748 14.1602C18.6265 14.4197 18.5379 14.9682 18.3195 15.8098L14.2001 31.6416C13.9851 32.4685 13.7922 32.9882 13.6223 33.1968C13.4524 33.4078 13.2201 33.5417 12.9214 33.6016C12.6218 33.6607 11.7346 33.4997 10.9909 33.3068L9.66211 36.1035C9.96665 36.5518 10.2884 36.987 10.6273 37.4074L17.6483 39.2352L16.7897 42.5344C17.997 43.1847 19.2783 43.7143 20.6186 44.1085L21.6174 40.269L24.0847 40.912C24.1134 40.9186 24.143 40.9243 24.1717 40.9317L23.1958 44.6849C24.2085 44.8426 25.246 44.9238 26.3032 44.9238C26.6651 44.9238 27.0247 44.914 27.3817 44.8951L28.2041 41.7346C29.5313 41.9022 30.6738 41.9276 31.6243 41.8061C33.4554 41.5729 34.9919 40.9406 36.2288 39.9069C37.4665 38.8756 38.2816 37.6061 38.6739 36.0986C38.999 34.839 38.9965 33.6189 38.6682 32.4381C38.3383 31.2615 37.7399 30.2507 36.8699 29.4181C36.274 28.8293 35.3523 28.1889 34.1129 27.5073C35.4622 27.408 36.5941 27.1345 37.5207 26.6879C38.4408 26.2387 39.2123 25.6475 39.8353 24.9085C40.4533 24.1728 40.8876 23.3353 41.1304 22.3992C41.4661 21.1117 41.3939 19.8291 40.9179 18.5532ZM31.5011 33.434C31.2458 34.4218 30.7468 35.1961 30.0097 35.7586C29.271 36.3178 28.4757 36.6085 27.6262 36.6265C26.7775 36.6446 25.7499 36.4984 24.5458 36.1847L22.475 35.6453C21.7831 35.4655 21.3727 35.3177 21.2357 35.2027C21.0994 35.0861 21.0231 34.9268 21.0034 34.7182C20.9862 34.5532 21.0855 34.04 21.298 33.1647L22.8969 27.0187L26.5682 27.9745C28.1802 28.3949 29.3383 28.8564 30.0467 29.3589C30.7534 29.8598 31.2277 30.4559 31.4683 31.1415C31.7088 31.8288 31.7202 32.5916 31.5011 33.434ZM33.9765 21.6717C33.7902 22.3902 33.4282 22.9732 32.8906 23.4199C32.3555 23.8682 31.6611 24.126 30.8117 24.1934C29.9613 24.2615 28.7228 24.085 27.0944 23.6613L23.9837 22.8508L25.7844 15.9289L28.8952 16.7385C30.714 17.2123 31.9451 17.6532 32.5919 18.0605C33.2378 18.4678 33.6778 18.9867 33.915 19.6108C34.149 20.2372 34.1719 20.9237 33.9765 21.6717Z" fill="#F0EFEB"/>
</svg>
