<svg width="64" height="64" viewBox="0 0 64 64" fill="none" xmlns="http://www.w3.org/2000/svg">
<path d="M64 32C64 49.0971 50.5914 63.0635 33.7163 63.9543C33.1481 63.9842 32.576 64 32 64C30.3177 64 28.6667 63.8708 27.055 63.6199C25.6549 63.403 24.286 63.0961 22.9538 62.703C20.8209 62.076 18.782 61.2336 16.8608 60.1991C13.0677 58.159 9.7345 55.3756 7.05438 52.0438C6.515 51.375 6.003 50.6827 5.51837 49.9696C2.035 44.847 0 38.6613 0 32C0 14.3269 14.3269 0 32 0C49.6731 0 64 14.3269 64 32Z" fill="#F99400"/>
<path d="M51.3479 23.2824C50.7474 21.679 49.6577 20.288 48.0767 19.1041C47.1599 18.4178 45.9611 17.8027 44.5366 17.2431L46.1135 11.1802L41.1293 9.88192L39.605 15.7398L36.4007 14.9062L37.924 9.04834L32.9399 7.75L31.4156 13.6078L20.8345 10.8526L19.5522 15.7821L20.954 16.1478C21.8872 16.39 22.5 16.6414 22.7894 16.898C23.0747 17.1535 23.2499 17.4451 23.3096 17.7697C23.3745 18.0953 23.2633 18.7837 22.9892 19.8398L17.8198 39.7072C17.5499 40.7448 17.3079 41.397 17.0947 41.6587C16.8814 41.9235 16.59 42.0915 16.2151 42.1667C15.8391 42.2408 14.7258 42.0389 13.7926 41.7968L12.125 45.3063C12.5072 45.8689 12.9109 46.415 13.3363 46.9426L22.1468 49.2363L21.0694 53.3765C22.5845 54.1926 24.1923 54.8571 25.8743 55.3518L27.1277 50.5336L30.2239 51.3405C30.26 51.3488 30.2971 51.356 30.3331 51.3652L29.1085 56.0752C30.3794 56.273 31.6813 56.375 33.0079 56.375C33.4621 56.375 33.9133 56.3627 34.3613 56.3389L35.3934 52.3729C37.0589 52.5831 38.4926 52.6151 39.6853 52.4625C41.9833 52.1699 43.9114 51.3765 45.4636 50.0792C47.0168 48.785 48.0396 47.192 48.532 45.3002C48.9399 43.7195 48.9367 42.1884 48.5248 40.7066C48.1108 39.2301 47.3599 37.9616 46.2681 36.9168C45.5203 36.178 44.3636 35.3743 42.8083 34.519C44.5016 34.3944 45.922 34.0512 47.0848 33.4907C48.2394 32.927 49.2076 32.1851 49.9894 31.2578C50.765 30.3345 51.3099 29.2835 51.6147 28.1088C52.0359 26.4932 51.9453 24.8836 51.3479 23.2824ZM39.5308 41.9564C39.2104 43.196 38.5842 44.1676 37.6593 44.8735C36.7323 45.5753 35.7342 45.94 34.6682 45.9627C33.6032 45.9854 32.3137 45.802 30.8026 45.4083L28.2039 44.7313C27.3357 44.5057 26.8207 44.3202 26.6487 44.1759C26.4776 44.0296 26.3819 43.8297 26.3572 43.568C26.3356 43.3609 26.4602 42.7168 26.7269 41.6185L28.7334 33.9058L33.3405 35.1053C35.3634 35.6328 36.8167 36.2119 37.7056 36.8425C38.5925 37.4711 39.1877 38.2192 39.4896 39.0796C39.7914 39.9421 39.8058 40.8993 39.5308 41.9564ZM42.6372 27.1959C42.4034 28.0975 41.9492 28.8291 41.2745 29.3896C40.603 29.9522 39.7316 30.2758 38.6656 30.3603C37.5986 30.4458 36.0443 30.2243 34.0008 29.6926L30.0971 28.6756L32.3569 19.9892L36.2606 21.0052C38.5431 21.5998 40.088 22.1531 40.8997 22.6642C41.7102 23.1753 42.2623 23.8265 42.56 24.6096C42.8536 25.3957 42.8824 26.2572 42.6372 27.1959Z" fill="#F0EFEB"/>
</svg>
