<svg width="41" height="41" viewBox="0 0 41 41" fill="none" xmlns="http://www.w3.org/2000/svg">
<path d="M20.5801 0C9.32029 0 0 9.16014 0 20.4199C0 31.6797 9.32029 41 20.5801 41C31.8399 41 41 31.6797 41 20.4199C41 9.16014 31.8399 0 20.5801 0ZM30.6875 27.1297C31.6245 28.0666 31.6245 29.5905 30.6875 30.5282C29.7578 31.4571 28.2339 31.4723 27.289 30.5282L20.5801 23.8168L13.7102 30.529C12.7733 31.4659 11.2494 31.4659 10.3117 30.529C9.37475 29.5921 9.37475 28.0682 10.3117 27.1305L17.0222 20.4199L10.3117 13.7094C9.37475 12.7717 9.37475 11.2478 10.3117 10.3109C11.2494 9.37395 12.7733 9.37395 13.7102 10.3109L20.5801 17.023L27.289 10.3109C28.2243 9.37555 29.7482 9.37234 30.6875 10.3109C31.6245 11.2478 31.6245 12.7717 30.6875 13.7094L23.977 20.4199L30.6875 27.1297Z" fill="white"/>
</svg>
