<svg width="71" height="71" viewBox="0 0 71 71" fill="none" xmlns="http://www.w3.org/2000/svg">
<path d="M35.5 0C15.8939 0 0 15.8939 0 35.5C0 55.1061 15.8939 71 35.5 71C55.1061 71 71 55.1061 71 35.5C71 15.8939 55.1061 0 35.5 0ZM35.5 66.5625C18.3446 66.5625 4.4375 52.6554 4.4375 35.5C4.4375 18.3446 18.3446 4.4375 35.5 4.4375C52.6554 4.4375 66.5625 18.3446 66.5625 35.5C66.5625 52.6554 52.6554 66.5625 35.5 66.5625Z" fill="#004239" fill-opacity="0.9"/>
<path d="M43.7316 13.9559L40.5809 17.1066L45.6841 22.1875H22.1875C19.7368 22.1875 17.75 24.1742 17.75 26.625V33.2812H22.1875V26.625H45.6841L40.6031 31.7059L43.7316 34.8344L52.6066 25.9594C53.4669 25.0939 53.4669 23.6964 52.6066 22.8309L43.7316 13.9559Z" fill="#004239" fill-opacity="0.9"/>
<path d="M48.8125 44.375H25.3159L30.3969 39.2941L27.2684 36.1656L18.3934 45.0407C17.5331 45.9061 17.5331 47.3036 18.3934 48.1691L27.2684 57.0441L30.3969 53.9157L25.3159 48.8125H48.8125C51.2633 48.8125 53.25 46.8258 53.25 44.375V37.7188H48.8125V44.375Z" fill="#004239" fill-opacity="0.9"/>
</svg>
