<svg width="389" height="97" viewBox="0 0 389 97" fill="none" xmlns="http://www.w3.org/2000/svg">
<path d="M32.7344 15.5781C27.2656 15.5781 23.0312 17.6406 20.0312 21.7656C17.0312 25.8594 15.5312 31.5781 15.5312 38.9219C15.5312 54.2031 21.2656 61.8438 32.7344 61.8438C37.5469 61.8438 43.375 60.6406 50.2188 58.2344V70.4219C44.5938 72.7656 38.3125 73.9375 31.375 73.9375C21.4062 73.9375 13.7812 70.9219 8.5 64.8906C3.21875 58.8281 0.578125 50.1406 0.578125 38.8281C0.578125 31.7031 1.875 25.4688 4.46875 20.125C7.0625 14.75 10.7812 10.6406 15.625 7.79688C20.5 4.92188 26.2031 3.48438 32.7344 3.48438C39.3906 3.48438 46.0781 5.09375 52.7969 8.3125L48.1094 20.125C45.5469 18.9062 42.9688 17.8437 40.375 16.9375C37.7812 16.0313 35.2344 15.5781 32.7344 15.5781ZM92.9688 19.6094C94.9062 19.6094 96.5156 19.75 97.7969 20.0312L96.7188 33.4375C95.5625 33.125 94.1562 32.9688 92.5 32.9688C87.9375 32.9688 84.375 34.1406 81.8125 36.4844C79.2812 38.8281 78.0156 42.1094 78.0156 46.3281V73H63.7188V20.5938H74.5469L76.6562 29.4062H77.3594C78.9844 26.4688 81.1719 24.1094 83.9219 22.3281C86.7031 20.5156 89.7188 19.6094 92.9688 19.6094ZM136.094 73.9375C129.938 73.9375 125.109 71.7031 121.609 67.2344H120.859C121.359 71.6094 121.609 74.1406 121.609 74.8281V96.0625H107.312V20.5938H118.938L120.953 27.3906H121.609C124.953 22.2031 129.906 19.6094 136.469 19.6094C142.656 19.6094 147.5 22 151 26.7812C154.5 31.5625 156.25 38.2031 156.25 46.7031C156.25 52.2969 155.422 57.1562 153.766 61.2812C152.141 65.4062 149.812 68.5469 146.781 70.7031C143.75 72.8594 140.188 73.9375 136.094 73.9375ZM131.875 31.0469C128.344 31.0469 125.766 32.1406 124.141 34.3281C122.516 36.4844 121.672 40.0625 121.609 45.0625V46.6094C121.609 52.2344 122.438 56.2656 124.094 58.7031C125.781 61.1406 128.438 62.3594 132.062 62.3594C138.469 62.3594 141.672 57.0781 141.672 46.5156C141.672 41.3594 140.875 37.5 139.281 34.9375C137.719 32.3438 135.25 31.0469 131.875 31.0469ZM216.438 73H202.141V42.3906C202.141 34.8281 199.328 31.0469 193.703 31.0469C189.703 31.0469 186.812 32.4062 185.031 35.125C183.25 37.8438 182.359 42.25 182.359 48.3438V73H168.062V0.0625H182.359V14.9219C182.359 16.0781 182.25 18.7969 182.031 23.0781L181.703 27.2969H182.453C185.641 22.1719 190.703 19.6094 197.641 19.6094C203.797 19.6094 208.469 21.2656 211.656 24.5781C214.844 27.8906 216.438 32.6406 216.438 38.8281V73ZM252.438 73.9375C236.125 73.9375 227.969 64.9844 227.969 47.0781C227.969 38.1719 230.188 31.375 234.625 26.6875C239.062 21.9687 245.422 19.6094 253.703 19.6094C259.766 19.6094 265.203 20.7969 270.016 23.1719L265.797 34.2344C263.547 33.3281 261.453 32.5938 259.516 32.0312C257.578 31.4375 255.641 31.1406 253.703 31.1406C246.266 31.1406 242.547 36.4219 242.547 46.9844C242.547 57.2344 246.266 62.3594 253.703 62.3594C256.453 62.3594 259 62 261.344 61.2812C263.688 60.5312 266.031 59.375 268.375 57.8125V70.0469C266.062 71.5156 263.719 72.5312 261.344 73.0938C259 73.6562 256.031 73.9375 252.438 73.9375ZM291.953 46.7031C291.953 51.8906 292.797 55.8125 294.484 58.4688C296.203 61.125 298.984 62.4531 302.828 62.4531C306.641 62.4531 309.375 61.1406 311.031 58.5156C312.719 55.8594 313.562 51.9219 313.562 46.7031C313.562 41.5156 312.719 37.625 311.031 35.0312C309.344 32.4375 306.578 31.1406 302.734 31.1406C298.922 31.1406 296.172 32.4375 294.484 35.0312C292.797 37.5938 291.953 41.4844 291.953 46.7031ZM328.188 46.7031C328.188 55.2344 325.938 61.9062 321.438 66.7188C316.938 71.5312 310.672 73.9375 302.641 73.9375C297.609 73.9375 293.172 72.8438 289.328 70.6562C285.484 68.4375 282.531 65.2656 280.469 61.1406C278.406 57.0156 277.375 52.2031 277.375 46.7031C277.375 38.1406 279.609 31.4844 284.078 26.7344C288.547 21.9844 294.828 19.6094 302.922 19.6094C307.953 19.6094 312.391 20.7031 316.234 22.8906C320.078 25.0781 323.031 28.2188 325.094 32.3125C327.156 36.4062 328.188 41.2031 328.188 46.7031ZM388.375 73H374.078V42.3906C374.078 38.6094 373.406 35.7812 372.062 33.9062C370.719 32 368.578 31.0469 365.641 31.0469C361.641 31.0469 358.75 32.3906 356.969 35.0781C355.188 37.7344 354.297 42.1562 354.297 48.3438V73H340V20.5938H350.922L352.844 27.2969H353.641C355.234 24.7656 357.422 22.8594 360.203 21.5781C363.016 20.2656 366.203 19.6094 369.766 19.6094C375.859 19.6094 380.484 21.2656 383.641 24.5781C386.797 27.8594 388.375 32.6094 388.375 38.8281V73Z" fill="#E6E6E6" fill-opacity="0.44"/>
</svg>
