<svg width="39" height="51" viewBox="0 0 39 51" fill="none" xmlns="http://www.w3.org/2000/svg">
<path d="M27.4162 20.2011C30.7924 17.1183 35.3581 12.9489 35.7743 2.98828H38.7887V0H0V2.98828H3.01448C3.43061 12.9489 7.99635 17.1183 11.3726 20.2011C13.6373 22.2691 14.9187 23.5348 14.9187 25.5C14.9187 27.4652 13.6373 28.7309 11.3726 30.7989C7.99635 33.8817 3.43061 38.0511 3.01448 48.0117H0V51H38.7887V48.0117H35.7743C35.3581 38.0511 30.7924 33.8817 27.4162 30.7989C25.1514 28.7309 23.87 27.4652 23.87 25.5C23.87 23.5348 25.1514 22.2691 27.4162 20.2011ZM17.9025 36.6999C17.4417 36.7951 16.9865 36.9337 16.5422 37.1177L7.40427 40.9048C8.89654 37.1047 11.3001 34.909 13.3828 33.0073C15.7071 30.8849 17.9025 28.8802 17.9025 25.5V36.6999ZM25.4059 33.0073C27.4887 34.909 29.8921 37.1047 31.3845 40.9047L22.2465 37.1176C21.8022 36.9336 21.347 36.795 20.8862 36.6998V25.5C20.8862 28.8802 23.0816 30.8849 25.4059 33.0073ZM7.35186 9.96094C6.63049 8.07842 6.1323 5.80543 6.00191 2.98828H32.7867C32.6563 5.80543 32.1582 8.07842 31.4368 9.96094H7.35186Z" fill="#009688"/>
</svg>
