<svg width="64" height="64" viewBox="0 0 64 64" fill="none" xmlns="http://www.w3.org/2000/svg">
<path d="M32 64C49.6731 64 64 49.6731 64 32C64 14.3269 49.6731 0 32 0C14.3269 0 0 14.3269 0 32C0 49.6731 14.3269 64 32 64Z" fill="#B6C4CF"/>
<path d="M32.3234 59.8642C47.7124 59.8642 60.1877 47.3889 60.1877 31.9999C60.1877 16.6108 47.7124 4.1355 32.3234 4.1355C16.9343 4.1355 4.45898 16.6108 4.45898 31.9999C4.45898 47.3889 16.9343 59.8642 32.3234 59.8642Z" fill="#F5F5F5"/>
<path d="M49.4234 10.2561C50.6473 13.6479 51.3158 17.305 51.3158 21.1186C51.3158 38.7917 36.9889 53.1186 19.3158 53.1186C17.2082 53.1186 15.1489 52.9126 13.155 52.5237C18.1158 57.0811 24.7325 59.8644 31.9999 59.8644C47.389 59.8644 59.8643 47.389 59.8643 32C59.8643 23.2049 55.7882 15.3629 49.4234 10.2561Z" fill="#E8EDF2"/>
<path d="M32.0008 29.9697C28.2295 29.9697 24.7252 26.5941 18.9738 20.4661C18.2215 19.6643 18.2728 18.4149 19.0886 17.6756C19.9045 16.9361 21.1757 16.9866 21.9281 17.7883C26.5803 22.7453 29.9901 26.0202 32.0008 26.0202C34.0116 26.0202 37.4212 22.7453 42.0736 17.7883C42.826 16.9867 44.0972 16.9361 44.9131 17.6756C45.7289 18.4151 45.7802 19.6643 45.0279 20.4661C39.2765 26.5941 35.7722 29.9697 32.0008 29.9697Z" fill="#B6C4CF"/>
<path d="M43.2143 46.8473C42.6726 46.8474 42.4689 46.6335 42.0727 46.2114C37.4205 41.2544 34.0107 37.9795 32 37.9795C29.9892 37.9795 26.5796 41.2543 21.9272 46.2114C21.1749 47.013 19.9036 47.0637 19.0877 46.3242C18.272 45.5847 18.2206 44.3354 18.973 43.5337C24.7244 37.4057 28.2286 34.03 32 34.03C35.7714 34.03 39.2756 37.4057 45.027 43.5337C46.3602 44.9817 45.0326 46.9943 43.2143 46.8473Z" fill="#B6C4CF"/>
</svg>
