<svg width="52" height="52" viewBox="0 0 52 52" fill="none" xmlns="http://www.w3.org/2000/svg">
<path d="M25.959 51.1357C40.0422 51.1357 51.459 39.719 51.459 25.6357C51.459 11.5525 40.0422 0.135742 25.959 0.135742C11.8757 0.135742 0.458984 11.5525 0.458984 25.6357C0.458984 39.719 11.8757 51.1357 25.959 51.1357Z" fill="black"/>
<path d="M41.608 5.73706C42.7281 8.84101 43.3398 12.1878 43.3398 15.6778C43.3398 31.8513 30.2286 44.9625 14.0551 44.9625C12.1263 44.9625 10.2418 44.774 8.41714 44.4181C12.957 48.5888 19.0123 51.1359 25.663 51.1359C39.7463 51.1359 51.163 39.7191 51.163 25.6359C51.163 17.5871 47.4327 10.4105 41.608 5.73706Z" fill="black"/>
<path d="M25.6639 23.7778C22.2126 23.7778 19.0057 20.6886 13.7423 15.0806C13.0538 14.3469 13.1008 13.2035 13.8473 12.5269C14.594 11.8502 15.7574 11.8964 16.4459 12.6301C20.7034 17.1665 23.8238 20.1635 25.6639 20.1635C27.5041 20.1635 30.6244 17.1665 34.882 12.6301C35.5705 11.8965 36.7339 11.8502 37.4806 12.5269C38.2271 13.2037 38.2741 14.3469 37.5856 15.0806C32.3222 20.6886 29.1153 23.7778 25.6639 23.7778Z" fill="white" fill-opacity="0.6"/>
<path d="M35.9258 39.2233C35.4301 39.2234 35.2436 39.0277 34.8811 38.6414C30.6236 34.105 27.5032 31.108 25.6631 31.108C23.8229 31.108 20.7026 34.1049 16.445 38.6414C15.7565 39.375 14.5931 39.4213 13.8465 38.7446C13.0999 38.0678 13.0529 36.9246 13.7414 36.1909C19.0048 30.5828 22.2117 27.4937 25.6631 27.4937C29.1144 27.4937 32.3213 30.5828 37.5847 36.1909C38.8048 37.516 37.5898 39.3578 35.9258 39.2233Z" fill="white" fill-opacity="0.6"/>
</svg>
